<svg width="110" height="89" viewBox="0 0 110 89" fill="none" xmlns="http://www.w3.org/2000/svg">
<g filter="url(#filter0_d)">
<line x1="59.9273" y1="14.5" x2="77.6" y2="14.5" stroke="url(#paint0_linear)" stroke-width="5"/>
<line x1="75.1909" y1="13" x2="75.1909" y2="31" stroke="url(#paint1_linear)" stroke-width="5"/>
<line x1="3.42728" y1="31" x2="3.42728" y2="13" stroke="url(#paint2_linear)" stroke-width="5"/>
<line x1="2" y1="15.5" x2="19.6727" y2="15.5" stroke="url(#paint3_linear)" stroke-width="5"/>
</g>
<g filter="url(#filter1_d)">
<line x1="19.6727" y1="78.5" x2="2" y2="78.5" stroke="url(#paint4_linear)" stroke-width="5"/>
<line x1="4.40909" y1="80" x2="4.40909" y2="62" stroke="url(#paint5_linear)" stroke-width="5"/>
<line x1="76.1727" y1="62" x2="76.1727" y2="80" stroke="url(#paint6_linear)" stroke-width="5"/>
<line x1="77.6" y1="77.5" x2="59.9273" y2="77.5" stroke="url(#paint7_linear)" stroke-width="5"/>
</g>
<path d="M8.73978 39.8867C8.73978 34.9453 9.88235 31.0195 12.1675 28.1094C14.4527 25.1797 17.48 23.7148 21.2495 23.7148C25.1167 23.7148 28.1343 25.082 30.3023 27.8164L30.5659 24.3008H35.5171V55.2383C35.5171 59.3398 34.2964 62.5723 31.855 64.9355C29.4331 67.2988 26.1714 68.4805 22.0699 68.4805C19.7847 68.4805 17.5484 67.9922 15.3609 67.0156C13.1734 66.0391 11.5034 64.7012 10.3511 63.002L13.1636 59.75C15.4878 62.6211 18.3296 64.0566 21.689 64.0566C24.3257 64.0566 26.3765 63.3145 27.8413 61.8301C29.3257 60.3457 30.0679 58.2559 30.0679 55.5605V52.8359C27.8999 55.3359 24.9409 56.5859 21.1909 56.5859C17.48 56.5859 14.4722 55.0918 12.1675 52.1035C9.88235 49.1152 8.73978 45.043 8.73978 39.8867ZM14.189 40.502C14.189 44.0762 14.9214 46.8887 16.3863 48.9395C17.8511 50.9707 19.9019 51.9863 22.5386 51.9863C25.9566 51.9863 28.4663 50.4336 30.0679 47.3281V32.8555C28.4077 29.8281 25.9175 28.3145 22.5972 28.3145C19.9605 28.3145 17.8999 29.3398 16.4156 31.3906C14.9312 33.4414 14.189 36.4785 14.189 40.502ZM42.4312 39.8867C42.4312 34.9453 43.5738 31.0195 45.8589 28.1094C48.1441 25.1797 51.1714 23.7148 54.9409 23.7148C58.8081 23.7148 61.8257 25.082 63.9937 27.8164L64.2574 24.3008H69.2085V55.2383C69.2085 59.3398 67.9878 62.5723 65.5464 64.9355C63.1245 67.2988 59.8628 68.4805 55.7613 68.4805C53.4761 68.4805 51.2398 67.9922 49.0523 67.0156C46.8648 66.0391 45.1949 64.7012 44.0425 63.002L46.855 59.75C49.1792 62.6211 52.021 64.0566 55.3804 64.0566C58.0171 64.0566 60.0679 63.3145 61.5327 61.8301C63.0171 60.3457 63.7593 58.2559 63.7593 55.5605V52.8359C61.5913 55.3359 58.6324 56.5859 54.8824 56.5859C51.1714 56.5859 48.1636 55.0918 45.8589 52.1035C43.5738 49.1152 42.4312 45.043 42.4312 39.8867ZM47.8804 40.502C47.8804 44.0762 48.6128 46.8887 50.0777 48.9395C51.5425 50.9707 53.5933 51.9863 56.23 51.9863C59.648 51.9863 62.1577 50.4336 63.7593 47.3281V32.8555C62.0992 29.8281 59.6089 28.3145 56.2886 28.3145C53.6519 28.3145 51.5913 29.3398 50.107 31.3906C48.6226 33.4414 47.8804 36.4785 47.8804 40.502Z" fill="#00FFFF"/>
<path d="M12.1675 28.1094L12.954 28.727L12.956 28.7244L12.1675 28.1094ZM30.3023 27.8164L29.5187 28.4377L31.1081 30.4424L31.2995 27.8912L30.3023 27.8164ZM30.5659 24.3008V23.3008H29.6381L29.5687 24.226L30.5659 24.3008ZM35.5171 24.3008H36.5171V23.3008H35.5171V24.3008ZM31.855 64.9355L31.1595 64.217L31.1566 64.2198L31.855 64.9355ZM10.3511 63.002L9.59474 62.3478L9.0928 62.9282L9.52347 63.5632L10.3511 63.002ZM13.1636 59.75L13.9408 59.1208L13.189 58.192L12.4072 59.0958L13.1636 59.75ZM27.8413 61.8301L27.1342 61.123L27.1296 61.1277L27.8413 61.8301ZM30.0679 52.8359H31.0679V50.1564L29.3124 52.1808L30.0679 52.8359ZM12.1675 52.1035L11.3731 52.711L11.3757 52.7142L12.1675 52.1035ZM16.3863 48.9395L15.5725 49.5207L15.5752 49.5244L16.3863 48.9395ZM30.0679 47.3281L30.9567 47.7865L31.0679 47.5708V47.3281H30.0679ZM30.0679 32.8555H31.0679V32.5993L30.9447 32.3746L30.0679 32.8555ZM9.73978 39.8867C9.73978 35.0943 10.8473 31.4099 12.954 28.727L11.381 27.4918C8.91743 30.6292 7.73978 34.7963 7.73978 39.8867H9.73978ZM12.956 28.7244C15.0485 26.0418 17.7829 24.7148 21.2495 24.7148V22.7148C17.1772 22.7148 13.8569 24.3176 11.379 27.4943L12.956 28.7244ZM21.2495 24.7148C24.8491 24.7148 27.5626 25.9706 29.5187 28.4377L31.0859 27.1951C28.706 24.1935 25.3844 22.7148 21.2495 22.7148V24.7148ZM31.2995 27.8912L31.5631 24.3756L29.5687 24.226L29.3051 27.7416L31.2995 27.8912ZM30.5659 25.3008H35.5171V23.3008H30.5659V25.3008ZM34.5171 24.3008V55.2383H36.5171V24.3008H34.5171ZM34.5171 55.2383C34.5171 59.1292 33.3669 62.0803 31.1595 64.217L32.5505 65.6541C35.2259 63.0643 36.5171 59.5505 36.5171 55.2383H34.5171ZM31.1566 64.2198C28.9598 66.3635 25.9693 67.4805 22.0699 67.4805V69.4805C26.3736 69.4805 29.9065 68.2341 32.5534 65.6513L31.1566 64.2198ZM22.0699 67.4805C19.9319 67.4805 17.8341 67.0246 15.7685 66.1025L14.9532 67.9288C17.2627 68.9598 19.6375 69.4805 22.0699 69.4805V67.4805ZM15.7685 66.1025C13.7222 65.189 12.2102 63.9616 11.1787 62.4407L9.52347 63.5632C10.7967 65.4407 12.6245 66.8892 14.9532 67.9288L15.7685 66.1025ZM11.1075 63.6561L13.92 60.4042L12.4072 59.0958L9.59474 62.3478L11.1075 63.6561ZM12.3864 60.3792C14.8789 63.4582 17.9952 65.0566 21.689 65.0566V63.0566C18.664 63.0566 16.0967 61.7839 13.9408 59.1208L12.3864 60.3792ZM21.689 65.0566C24.5187 65.0566 26.8538 64.2545 28.5531 62.5325L27.1296 61.1277C25.8992 62.3744 24.1328 63.0566 21.689 63.0566V65.0566ZM28.5484 62.5372C30.2696 60.8161 31.0679 58.4422 31.0679 55.5605H29.0679C29.0679 58.0695 28.3818 59.8754 27.1342 61.123L28.5484 62.5372ZM31.0679 55.5605V52.8359H29.0679V55.5605H31.0679ZM29.3124 52.1808C27.3609 54.4312 24.6941 55.5859 21.1909 55.5859V57.5859C25.1878 57.5859 28.439 56.2407 30.8234 53.4911L29.3124 52.1808ZM21.1909 55.5859C17.7961 55.5859 15.0785 54.2405 12.9594 51.4928L11.3757 52.7142C13.8659 55.9431 17.1639 57.5859 21.1909 57.5859V55.5859ZM12.9619 51.4961C10.8518 48.7367 9.73978 44.9036 9.73978 39.8867H7.73978C7.73978 45.1823 8.91295 49.4938 11.3732 52.711L12.9619 51.4961ZM13.189 40.502C13.189 44.2004 13.9454 47.2427 15.5725 49.5207L17.2 48.3582C15.8974 46.5346 15.189 43.9519 15.189 40.502H13.189ZM15.5752 49.5244C17.2394 51.8321 19.6005 52.9863 22.5386 52.9863V50.9863C20.2032 50.9863 18.4628 50.1093 17.1974 48.3545L15.5752 49.5244ZM22.5386 52.9863C24.4035 52.9863 26.0739 52.561 27.5105 51.6722C28.9459 50.7842 30.0882 49.4705 30.9567 47.7865L29.1791 46.8698C28.446 48.2913 27.5327 49.3067 26.4583 49.9714C25.3851 50.6353 24.0917 50.9863 22.5386 50.9863V52.9863ZM31.0679 47.3281V32.8555H29.0679V47.3281H31.0679ZM30.9447 32.3746C30.046 30.7358 28.895 29.4586 27.4745 28.5952C26.052 27.7305 24.4145 27.3145 22.5972 27.3145V29.3145C24.1002 29.3145 25.368 29.6552 26.4357 30.3042C27.5054 30.9545 28.4297 31.9478 29.1911 33.3363L30.9447 32.3746ZM22.5972 27.3145C19.6554 27.3145 17.2869 28.4812 15.6055 30.8043L17.2256 31.977C18.5129 30.1985 20.2655 29.3145 22.5972 29.3145V27.3145ZM15.6055 30.8043C13.9441 33.0996 13.189 36.3827 13.189 40.502H15.189C15.189 36.5743 15.9183 33.7832 17.2256 31.977L15.6055 30.8043ZM45.8589 28.1094L46.6454 28.727L46.6474 28.7244L45.8589 28.1094ZM63.9937 27.8164L63.2101 28.4377L64.7995 30.4424L64.9909 27.8912L63.9937 27.8164ZM64.2574 24.3008V23.3008H63.3295L63.2602 24.226L64.2574 24.3008ZM69.2085 24.3008H70.2085V23.3008H69.2085V24.3008ZM65.5464 64.9355L64.8509 64.217L64.848 64.2198L65.5464 64.9355ZM44.0425 63.002L43.2861 62.3478L42.7842 62.9282L43.2149 63.5632L44.0425 63.002ZM46.855 59.75L47.6323 59.1208L46.8804 58.192L46.0986 59.0958L46.855 59.75ZM61.5327 61.8301L60.8256 61.123L60.821 61.1277L61.5327 61.8301ZM63.7593 52.8359H64.7593V50.1564L63.0038 52.1808L63.7593 52.8359ZM45.8589 52.1035L45.0646 52.711L45.0671 52.7142L45.8589 52.1035ZM50.0777 48.9395L49.2639 49.5207L49.2666 49.5244L50.0777 48.9395ZM63.7593 47.3281L64.6481 47.7865L64.7593 47.5708V47.3281H63.7593ZM63.7593 32.8555H64.7593V32.5993L64.6361 32.3746L63.7593 32.8555ZM43.4312 39.8867C43.4312 35.0943 44.5387 31.4099 46.6454 28.727L45.0724 27.4918C42.6088 30.6292 41.4312 34.7963 41.4312 39.8867H43.4312ZM46.6474 28.7244C48.7399 26.0418 51.4743 24.7148 54.9409 24.7148V22.7148C50.8686 22.7148 47.5483 24.3176 45.0704 27.4943L46.6474 28.7244ZM54.9409 24.7148C58.5405 24.7148 61.254 25.9706 63.2101 28.4377L64.7773 27.1951C62.3974 24.1935 59.0758 22.7148 54.9409 22.7148V24.7148ZM64.9909 27.8912L65.2546 24.3756L63.2602 24.226L62.9965 27.7416L64.9909 27.8912ZM64.2574 25.3008H69.2085V23.3008H64.2574V25.3008ZM68.2085 24.3008V55.2383H70.2085V24.3008H68.2085ZM68.2085 55.2383C68.2085 59.1292 67.0583 62.0803 64.8509 64.217L66.2419 65.6541C68.9174 63.0643 70.2085 59.5505 70.2085 55.2383H68.2085ZM64.848 64.2198C62.6512 66.3635 59.6607 67.4805 55.7613 67.4805V69.4805C60.065 69.4805 63.5979 68.2341 66.2448 65.6513L64.848 64.2198ZM55.7613 67.4805C53.6234 67.4805 51.5255 67.0246 49.4599 66.1025L48.6446 67.9288C50.9541 68.9598 53.3289 69.4805 55.7613 69.4805V67.4805ZM49.4599 66.1025C47.4136 65.189 45.9016 63.9616 44.8701 62.4407L43.2149 63.5632C44.4881 65.4407 46.3159 66.8892 48.6446 67.9288L49.4599 66.1025ZM44.7989 63.6561L47.6114 60.4042L46.0986 59.0958L43.2861 62.3478L44.7989 63.6561ZM46.0778 60.3792C48.5703 63.4582 51.6866 65.0566 55.3804 65.0566V63.0566C52.3554 63.0566 49.7881 61.7839 47.6323 59.1208L46.0778 60.3792ZM55.3804 65.0566C58.2101 65.0566 60.5452 64.2545 62.2445 62.5325L60.821 61.1277C59.5906 62.3744 57.8242 63.0566 55.3804 63.0566V65.0566ZM62.2399 62.5372C63.961 60.8161 64.7593 58.4422 64.7593 55.5605H62.7593C62.7593 58.0695 62.0733 59.8754 60.8256 61.123L62.2399 62.5372ZM64.7593 55.5605V52.8359H62.7593V55.5605H64.7593ZM63.0038 52.1808C61.0523 54.4312 58.3855 55.5859 54.8824 55.5859V57.5859C58.8792 57.5859 62.1304 56.2407 64.5148 53.4911L63.0038 52.1808ZM54.8824 55.5859C51.4875 55.5859 48.7699 54.2405 46.6508 51.4928L45.0671 52.7142C47.5573 55.9431 50.8553 57.5859 54.8824 57.5859V55.5859ZM46.6533 51.4961C44.5432 48.7367 43.4312 44.9036 43.4312 39.8867H41.4312C41.4312 45.1823 42.6044 49.4938 45.0646 52.711L46.6533 51.4961ZM46.8804 40.502C46.8804 44.2004 47.6368 47.2427 49.2639 49.5207L50.8914 48.3582C49.5888 46.5346 48.8804 43.9519 48.8804 40.502H46.8804ZM49.2666 49.5244C50.9308 51.8321 53.2919 52.9863 56.23 52.9863V50.9863C53.8947 50.9863 52.1542 50.1093 50.8888 48.3545L49.2666 49.5244ZM56.23 52.9863C58.0949 52.9863 59.7653 52.561 61.2019 51.6722C62.6373 50.7842 63.7796 49.4705 64.6481 47.7865L62.8705 46.8698C62.1374 48.2913 61.2241 49.3067 60.1497 49.9714C59.0765 50.6353 57.7831 50.9863 56.23 50.9863V52.9863ZM64.7593 47.3281V32.8555H62.7593V47.3281H64.7593ZM64.6361 32.3746C63.7374 30.7358 62.5864 29.4586 61.1659 28.5952C59.7434 27.7305 58.1059 27.3145 56.2886 27.3145V29.3145C57.7916 29.3145 59.0594 29.6552 60.1271 30.3042C61.1968 30.9545 62.1211 31.9478 62.8825 33.3363L64.6361 32.3746ZM56.2886 27.3145C53.3469 27.3145 50.9784 28.4812 49.2969 30.8043L50.917 31.977C52.2043 30.1985 53.9569 29.3145 56.2886 29.3145V27.3145ZM49.2969 30.8043C47.6355 33.0996 46.8804 36.3827 46.8804 40.502H48.8804C48.8804 36.5743 49.6097 33.7832 50.917 31.977L49.2969 30.8043Z" fill="#D1FFFF"/>
<defs>
<filter id="filter0_d" x="0.927277" y="12" width="84.7636" height="27" filterUnits="userSpaceOnUse" color-interpolation-filters="sRGB">
<feFlood flood-opacity="0" result="BackgroundImageFix"/>
<feColorMatrix in="SourceAlpha" type="matrix" values="0 0 0 0 0 0 0 0 0 0 0 0 0 0 0 0 0 0 127 0"/>
<feOffset dx="4" dy="4"/>
<feGaussianBlur stdDeviation="2"/>
<feColorMatrix type="matrix" values="0 0 0 0 1 0 0 0 0 1 0 0 0 0 1 0 0 0 1 0"/>
<feBlend mode="normal" in2="BackgroundImageFix" result="effect1_dropShadow"/>
<feBlend mode="normal" in="SourceGraphic" in2="effect1_dropShadow" result="shape"/>
</filter>
<filter id="filter1_d" x="1.90909" y="62" width="84.7636" height="27" filterUnits="userSpaceOnUse" color-interpolation-filters="sRGB">
<feFlood flood-opacity="0" result="BackgroundImageFix"/>
<feColorMatrix in="SourceAlpha" type="matrix" values="0 0 0 0 0 0 0 0 0 0 0 0 0 0 0 0 0 0 127 0"/>
<feOffset dx="4" dy="4"/>
<feGaussianBlur stdDeviation="2"/>
<feColorMatrix type="matrix" values="0 0 0 0 1 0 0 0 0 1 0 0 0 0 1 0 0 0 1 0"/>
<feBlend mode="normal" in2="BackgroundImageFix" result="effect1_dropShadow"/>
<feBlend mode="normal" in="SourceGraphic" in2="effect1_dropShadow" result="shape"/>
</filter>
<linearGradient id="paint0_linear" x1="68.7636" y1="17" x2="68.7636" y2="18" gradientUnits="userSpaceOnUse">
<stop stop-color="#00FFFF"/>
<stop offset="1" stop-color="#2CF81A" stop-opacity="0"/>
</linearGradient>
<linearGradient id="paint1_linear" x1="72.6909" y1="22" x2="71.6909" y2="22" gradientUnits="userSpaceOnUse">
<stop stop-color="#00FFFF"/>
<stop offset="1" stop-color="#2CF81A" stop-opacity="0"/>
</linearGradient>
<linearGradient id="paint2_linear" x1="5.92728" y1="22" x2="6.92728" y2="22" gradientUnits="userSpaceOnUse">
<stop stop-color="#00FFFF"/>
<stop offset="1" stop-color="#2CF81A" stop-opacity="0"/>
</linearGradient>
<linearGradient id="paint3_linear" x1="10.8364" y1="18" x2="10.8364" y2="19" gradientUnits="userSpaceOnUse">
<stop stop-color="#00FFFF"/>
<stop offset="1" stop-color="#2CF81A" stop-opacity="0"/>
</linearGradient>
<linearGradient id="paint4_linear" x1="10.8364" y1="76" x2="10.8364" y2="75" gradientUnits="userSpaceOnUse">
<stop stop-color="#00FFFF"/>
<stop offset="1" stop-color="#2CF81A" stop-opacity="0"/>
</linearGradient>
<linearGradient id="paint5_linear" x1="6.90909" y1="71" x2="7.90909" y2="71" gradientUnits="userSpaceOnUse">
<stop stop-color="#00FFFF"/>
<stop offset="1" stop-color="#2CF81A" stop-opacity="0"/>
</linearGradient>
<linearGradient id="paint6_linear" x1="73.6727" y1="71" x2="72.6727" y2="71" gradientUnits="userSpaceOnUse">
<stop stop-color="#00FFFF"/>
<stop offset="1" stop-color="#2CF81A" stop-opacity="0"/>
</linearGradient>
<linearGradient id="paint7_linear" x1="68.7636" y1="75" x2="68.7636" y2="74" gradientUnits="userSpaceOnUse">
<stop stop-color="#00FFFF"/>
<stop offset="1" stop-color="#2CF81A" stop-opacity="0"/>
</linearGradient>
</defs>
</svg>
