<svg width="115" height="89" viewBox="0 0 115 89" fill="none" xmlns="http://www.w3.org/2000/svg">
<g filter="url(#filter0_d)">
<line x1="64" y1="14.5" x2="82" y2="14.5" stroke="#B214EA" stroke-width="5"/>
<line x1="79.5" y1="13" x2="79.5" y2="31" stroke="#B214EA" stroke-width="5"/>
<line x1="6.5" y1="31" x2="6.5" y2="13" stroke="#B214EA" stroke-width="5"/>
<line x1="5" y1="15.5" x2="23" y2="15.5" stroke="#B214EA" stroke-width="5"/>
<line x1="23" y1="78.5" x2="5" y2="78.5" stroke="#B214EA" stroke-width="5"/>
<line x1="7.5" y1="80" x2="7.5" y2="62" stroke="#B214EA" stroke-width="5"/>
<line x1="80.5" y1="62" x2="80.5" y2="80" stroke="#B214EA" stroke-width="5"/>
<line x1="82" y1="77.5" x2="64" y2="77.5" stroke="#B214EA" stroke-width="5"/>
<path d="M11.8125 39.8867C11.8125 34.9453 12.9551 31.0195 15.2402 28.1094C17.5254 25.1797 20.5527 23.7148 24.3223 23.7148C28.1895 23.7148 31.207 25.082 33.375 27.8164L33.6387 24.3008H38.5898V55.2383C38.5898 59.3398 37.3691 62.5723 34.9277 64.9355C32.5059 67.2988 29.2441 68.4805 25.1426 68.4805C22.8574 68.4805 20.6211 67.9922 18.4336 67.0156C16.2461 66.0391 14.5762 64.7012 13.4238 63.002L16.2363 59.75C18.5605 62.6211 21.4023 64.0566 24.7617 64.0566C27.3984 64.0566 29.4492 63.3145 30.9141 61.8301C32.3984 60.3457 33.1406 58.2559 33.1406 55.5605V52.8359C30.9727 55.3359 28.0137 56.5859 24.2637 56.5859C20.5527 56.5859 17.5449 55.0918 15.2402 52.1035C12.9551 49.1152 11.8125 45.043 11.8125 39.8867ZM17.2617 40.502C17.2617 44.0762 17.9941 46.8887 19.459 48.9395C20.9238 50.9707 22.9746 51.9863 25.6113 51.9863C29.0293 51.9863 31.5391 50.4336 33.1406 47.3281V32.8555C31.4805 29.8281 28.9902 28.3145 25.6699 28.3145C23.0332 28.3145 20.9727 29.3398 19.4883 31.3906C18.0039 33.4414 17.2617 36.4785 17.2617 40.502ZM45.5039 39.8867C45.5039 34.9453 46.6465 31.0195 48.9316 28.1094C51.2168 25.1797 54.2441 23.7148 58.0137 23.7148C61.8809 23.7148 64.8984 25.082 67.0664 27.8164L67.3301 24.3008H72.2812V55.2383C72.2812 59.3398 71.0605 62.5723 68.6191 64.9355C66.1973 67.2988 62.9355 68.4805 58.834 68.4805C56.5488 68.4805 54.3125 67.9922 52.125 67.0156C49.9375 66.0391 48.2676 64.7012 47.1152 63.002L49.9277 59.75C52.252 62.6211 55.0938 64.0566 58.4531 64.0566C61.0898 64.0566 63.1406 63.3145 64.6055 61.8301C66.0898 60.3457 66.832 58.2559 66.832 55.5605V52.8359C64.6641 55.3359 61.7051 56.5859 57.9551 56.5859C54.2441 56.5859 51.2363 55.0918 48.9316 52.1035C46.6465 49.1152 45.5039 45.043 45.5039 39.8867ZM50.9531 40.502C50.9531 44.0762 51.6855 46.8887 53.1504 48.9395C54.6152 50.9707 56.666 51.9863 59.3027 51.9863C62.7207 51.9863 65.2305 50.4336 66.832 47.3281V32.8555C65.1719 29.8281 62.6816 28.3145 59.3613 28.3145C56.7246 28.3145 54.6641 29.3398 53.1797 31.3906C51.6953 33.4414 50.9531 36.4785 50.9531 40.502Z" fill="#B214EA"/>
</g>
<defs>
<filter id="filter0_d" x="0" y="12" width="87" height="77" filterUnits="userSpaceOnUse" color-interpolation-filters="sRGB">
<feFlood flood-opacity="0" result="BackgroundImageFix"/>
<feColorMatrix in="SourceAlpha" type="matrix" values="0 0 0 0 0 0 0 0 0 0 0 0 0 0 0 0 0 0 127 0"/>
<feOffset dy="4"/>
<feGaussianBlur stdDeviation="2"/>
<feColorMatrix type="matrix" values="0 0 0 0 0 0 0 0 0 0 0 0 0 0 0 0 0 0 0.25 0"/>
<feBlend mode="normal" in2="BackgroundImageFix" result="effect1_dropShadow"/>
<feBlend mode="normal" in="SourceGraphic" in2="effect1_dropShadow" result="shape"/>
</filter>
</defs>
</svg>
